<?xml version="1.0" standalone="no"?>
<!DOCTYPE svg PUBLIC "-//W3C//DTD SVG 20010904//EN"
 "http://www.w3.org/TR/2001/REC-SVG-20010904/DTD/svg10.dtd">
<svg version="1.0" xmlns="http://www.w3.org/2000/svg"
 width="300.000000pt" height="168.000000pt" viewBox="0 0 300.000000 168.000000"
 preserveAspectRatio="xMidYMid meet">
<metadata>
Created by potrace 1.16, written by Peter Selinger 2001-2019
</metadata>
<g transform="translate(0.000000,168.000000) scale(0.100000,-0.100000)"
fill="#000000" stroke="none">
<path d="M0 840 l0 -840 1500 0 1500 0 0 840 0 840 -1500 0 -1500 0 0 -840z
m60 -3 c0 -94 7 -107 60 -107 53 0 60 13 60 107 0 82 0 83 25 83 25 0 25 -1
25 -90 0 -83 -2 -93 -25 -115 -20 -21 -34 -25 -85 -25 -51 0 -65 4 -85 25 -23
22 -25 32 -25 115 0 89 0 90 25 90 25 0 25 -1 25 -83z m434 73 c30 -11 42 -49
26 -80 -9 -17 -9 -25 4 -39 22 -24 20 -57 -4 -81 -18 -18 -31 -20 -108 -18
l-87 3 -3 99 c-1 55 0 106 2 113 6 16 131 18 170 3z m324 -7 c-3 -15 -16 -19
-71 -21 -67 -3 -67 -3 -67 -32 0 -29 1 -30 50 -30 38 0 50 -4 50 -15 0 -11
-12 -15 -44 -15 -45 0 -59 -10 -61 -42 -1 -16 8 -18 72 -18 66 0 74 -2 71 -17
-3 -16 -16 -18 -98 -18 l-95 0 -3 99 c-1 55 0 106 2 113 4 9 31 13 101 13 86
0 96 -2 93 -17z m283 -12 c25 -31 24 -66 -3 -93 l-21 -21 21 -38 c27 -47 27
-49 -2 -49 -18 0 -31 11 -50 45 -27 46 -43 53 -77 35 -13 -8 -19 -21 -19 -46
0 -31 -3 -35 -22 -32 -22 3 -23 8 -26 102 -1 55 0 106 3 114 4 11 24 13 91 11
76 -4 88 -7 105 -28z"/>
</g>
</svg>
